<svg xmlns="http://www.w3.org/2000/svg" viewBox="0 0 128 128" width="128" height="128">
  <rect width="128" height="128" rx="16" fill="#1a1a2e"/>
  <polygon points="64,16 108,38 108,82 64,104 20,82 20,38" fill="none" stroke="#00f0ff" stroke-width="2.5"/>
  <polygon points="64,24 102,43 102,79 64,98 26,79 26,43" fill="none" stroke="#00f0ff" stroke-width="0.5" opacity="0.3"/>
  <line x1="64" y1="16" x2="64" y2="4" stroke="#00f0ff" stroke-width="1.5" opacity="0.6"/>
  <line x1="108" y1="38" x2="118" y2="30" stroke="#00f0ff" stroke-width="1.5" opacity="0.6"/>
  <line x1="108" y1="82" x2="120" y2="90" stroke="#00f0ff" stroke-width="1.5" opacity="0.6"/>
  <line x1="64" y1="104" x2="64" y2="118" stroke="#00f0ff" stroke-width="1.5" opacity="0.6"/>
  <line x1="20" y1="82" x2="8" y2="90" stroke="#00f0ff" stroke-width="1.5" opacity="0.6"/>
  <line x1="20" y1="38" x2="10" y2="30" stroke="#00f0ff" stroke-width="1.5" opacity="0.6"/>
  <circle cx="64" cy="4" r="2" fill="#00f0ff" opacity="0.8"/>
  <circle cx="118" cy="30" r="2" fill="#00f0ff" opacity="0.8"/>
  <circle cx="120" cy="90" r="2" fill="#00f0ff" opacity="0.8"/>
  <circle cx="64" cy="118" r="2" fill="#00f0ff" opacity="0.8"/>
  <circle cx="8" cy="90" r="2" fill="#00f0ff" opacity="0.8"/>
  <circle cx="10" cy="30" r="2" fill="#00f0ff" opacity="0.8"/>
  <line x1="64" y1="16" x2="78" y2="8" stroke="#00f0ff" stroke-width="1" opacity="0.4"/>
  <line x1="108" y1="82" x2="108" y2="98" stroke="#00f0ff" stroke-width="1" opacity="0.4"/>
  <line x1="20" y1="38" x2="20" y2="24" stroke="#00f0ff" stroke-width="1" opacity="0.4"/>
  <circle cx="78" cy="8" r="1.5" fill="#8b5cf6" opacity="0.7"/>
  <circle cx="108" cy="98" r="1.5" fill="#8b5cf6" opacity="0.7"/>
  <circle cx="20" cy="24" r="1.5" fill="#8b5cf6" opacity="0.7"/>
</svg>
