<svg xmlns="http://www.w3.org/2000/svg" xmlns:xlink="http://www.w3.org/1999/xlink" width="2000" zoomAndPan="magnify" viewBox="0 0 1500 1499.999933" height="2000" preserveAspectRatio="xMidYMid meet" version="1.0"><defs><g/><clipPath id="62258b256f"><path d="M 1298 130 L 1499.804688 130 L 1499.804688 364 L 1298 364 Z M 1298 130 " clip-rule="nonzero"/></clipPath><clipPath id="da169f011c"><path d="M 0.0703125 0 L 1218 0 L 1218 1500 L 0.0703125 1500 Z M 0.0703125 0 " clip-rule="nonzero"/></clipPath><clipPath id="d652b8cccb"><rect x="0" width="1500" y="0" height="1500"/></clipPath></defs><g transform="matrix(1, 0, 0, 1, 0, 0.000000000000112861)"><g clip-path="url(#d652b8cccb)"><g fill="#ffffff" fill-opacity="1"><g transform="translate(778.696137, 700.512983)"><g><path d="M 21.890625 0 L 13.710938 -21.222656 L 8.050781 -21.222656 L -0.160156 0 L 4.804688 0 L 6.140625 -3.660156 L 15.621094 -3.660156 L 16.957031 0 Z M 14.378906 -7.570312 L 7.347656 -7.570312 L 10.882812 -17.308594 Z M 14.378906 -7.570312 "/></g></g></g><g fill="#ffffff" fill-opacity="1"><g transform="translate(801.536434, 700.512983)"><g><path d="M 10.46875 0 C 17.117188 0 21.730469 -4.199219 21.730469 -10.59375 C 21.730469 -16.988281 17.117188 -21.222656 10.46875 -21.222656 L 2.101562 -21.222656 L 2.101562 0 Z M 6.617188 -17.242188 L 10.46875 -17.242188 C 14.824219 -17.242188 17.117188 -14.347656 17.117188 -10.59375 C 17.117188 -7 14.667969 -3.976562 10.46875 -3.976562 L 6.617188 -3.976562 Z M 6.617188 -17.242188 "/></g></g></g><g fill="#ffffff" fill-opacity="1"><g transform="translate(825.45829, 700.512983)"><g><path d="M 21.890625 0 L 13.710938 -21.222656 L 8.050781 -21.222656 L -0.160156 0 L 4.804688 0 L 6.140625 -3.660156 L 15.621094 -3.660156 L 16.957031 0 Z M 14.378906 -7.570312 L 7.347656 -7.570312 L 10.882812 -17.308594 Z M 14.378906 -7.570312 "/></g></g></g><g fill="#ffffff" fill-opacity="1"><g transform="translate(848.298587, 700.512983)"><g><path d="M 25.101562 0 L 25.101562 -21.222656 L 18.738281 -21.222656 L 13.585938 -7.984375 L 8.429688 -21.222656 L 2.101562 -21.222656 L 2.101562 0 L 6.617188 0 L 6.617188 -15.269531 L 12.597656 0 L 14.570312 0 L 20.554688 -15.269531 L 20.554688 0 Z M 25.101562 0 "/></g></g></g><g fill="#ffffff" fill-opacity="1"><g transform="translate(876.578526, 700.512983)"><g/></g></g><g fill="#ffffff" fill-opacity="1"><g transform="translate(885.803811, 700.512983)"><g><path d="M 13.617188 0 C 17.65625 0 19.789062 -2.546875 19.789062 -5.726562 C 19.789062 -8.398438 17.976562 -10.59375 15.71875 -10.945312 C 17.722656 -11.359375 19.375 -13.140625 19.375 -15.8125 C 19.375 -18.644531 17.308594 -21.222656 13.265625 -21.222656 L 2.101562 -21.222656 L 2.101562 0 Z M 6.617188 -17.371094 L 12.28125 -17.371094 C 13.808594 -17.371094 14.761719 -16.351562 14.761719 -15.046875 C 14.761719 -13.679688 13.808594 -12.695312 12.28125 -12.695312 L 6.617188 -12.695312 Z M 6.617188 -8.84375 L 12.441406 -8.84375 C 14.222656 -8.84375 15.175781 -7.699219 15.175781 -6.363281 C 15.175781 -4.835938 14.15625 -3.851562 12.441406 -3.851562 L 6.617188 -3.851562 Z M 6.617188 -8.84375 "/></g></g></g><g fill="#ffffff" fill-opacity="1"><g transform="translate(907.976084, 700.512983)"><g><path d="M 17.117188 0 L 17.117188 -3.914062 L 6.617188 -3.914062 L 6.617188 -8.84375 L 16.894531 -8.84375 L 16.894531 -12.726562 L 6.617188 -12.726562 L 6.617188 -17.339844 L 17.117188 -17.339844 L 17.117188 -21.222656 L 2.101562 -21.222656 L 2.101562 0 Z M 17.117188 0 "/></g></g></g><g fill="#ffffff" fill-opacity="1"><g transform="translate(927.603494, 700.512983)"><g><path d="M 15.589844 0 L 15.589844 -3.976562 L 6.617188 -3.976562 L 6.617188 -21.222656 L 2.101562 -21.222656 L 2.101562 0 Z M 15.589844 0 "/></g></g></g><g fill="#ffffff" fill-opacity="1"><g transform="translate(945.322255, 700.512983)"><g><path d="M 1.082031 -10.59375 C 1.082031 -4.199219 5.757812 0.382812 12.152344 0.382812 C 18.582031 0.382812 23.257812 -4.199219 23.257812 -10.59375 C 23.257812 -16.988281 18.582031 -21.570312 12.152344 -21.570312 C 5.757812 -21.570312 1.082031 -16.988281 1.082031 -10.59375 Z M 18.613281 -10.59375 C 18.613281 -6.648438 16.066406 -3.628906 12.152344 -3.628906 C 8.238281 -3.628906 5.726562 -6.648438 5.726562 -10.59375 C 5.726562 -14.570312 8.238281 -17.5625 12.152344 -17.5625 C 16.066406 -17.5625 18.613281 -14.570312 18.613281 -10.59375 Z M 18.613281 -10.59375 "/></g></g></g><g fill="#ffffff" fill-opacity="1"><g transform="translate(970.739227, 700.512983)"><g><path d="M 2.101562 -8.464844 C 2.101562 -3.246094 5.121094 0.382812 11.613281 0.382812 C 18.039062 0.382812 21.0625 -3.214844 21.0625 -8.496094 L 21.0625 -21.222656 L 16.480469 -21.222656 L 16.480469 -8.621094 C 16.480469 -5.664062 14.859375 -3.628906 11.613281 -3.628906 C 8.304688 -3.628906 6.679688 -5.664062 6.679688 -8.621094 L 6.679688 -21.222656 L 2.101562 -21.222656 Z M 2.101562 -8.464844 "/></g></g></g><g fill="#ffffff" fill-opacity="1"><g transform="translate(994.979202, 700.512983)"><g><path d="M 12.21875 0.382812 C 17.054688 0.382812 19.726562 -2.195312 21.253906 -4.835938 L 17.371094 -6.714844 C 16.480469 -4.964844 14.570312 -3.628906 12.21875 -3.628906 C 8.527344 -3.628906 5.726562 -6.585938 5.726562 -10.59375 C 5.726562 -14.601562 8.527344 -17.5625 12.21875 -17.5625 C 14.570312 -17.5625 16.480469 -16.195312 17.371094 -14.476562 L 21.253906 -16.386719 C 19.757812 -19.027344 17.054688 -21.570312 12.21875 -21.570312 C 6.011719 -21.570312 1.082031 -17.117188 1.082031 -10.59375 C 1.082031 -4.074219 6.011719 0.382812 12.21875 0.382812 Z M 12.21875 0.382812 "/></g></g></g><g fill="#ffffff" fill-opacity="1"><g transform="translate(1017.914925, 700.512983)"><g><path d="M 6.617188 0 L 6.617188 -21.222656 L 2.101562 -21.222656 L 2.101562 0 Z M 6.617188 0 "/></g></g></g><g fill="#ffffff" fill-opacity="1"><g transform="translate(1027.712823, 700.512983)"><g><path d="M 6.617188 0 L 6.617188 -8.84375 L 16.894531 -8.84375 L 16.894531 -12.726562 L 6.617188 -12.726562 L 6.617188 -17.339844 L 17.117188 -17.339844 L 17.117188 -21.222656 L 2.101562 -21.222656 L 2.101562 0 Z M 6.617188 0 "/></g></g></g><path fill="#ffb000" d="M 564.4375 1145.8125 L 463.605469 1204.027344 L 362.777344 1145.8125 L 362.777344 1029.390625 L 463.605469 971.171875 L 564.4375 1029.390625 L 564.4375 1145.8125 " fill-opacity="1" fill-rule="nonzero"/><g clip-path="url(#62258b256f)"><path fill="#ffb000" d="M 1499.816406 305.554688 L 1398.984375 363.773438 L 1298.160156 305.554688 L 1298.160156 189.132812 L 1398.984375 130.917969 L 1499.816406 189.132812 L 1499.816406 305.554688 " fill-opacity="1" fill-rule="nonzero"/></g><path fill="#ffb000" d="M 1364.226562 1026.84375 L 1298.160156 1064.988281 L 1232.097656 1026.84375 L 1232.097656 950.558594 L 1298.160156 912.414062 L 1364.226562 950.558594 L 1364.226562 1026.84375 " fill-opacity="1" fill-rule="nonzero"/><g clip-path="url(#da169f011c)"><path fill="#ffb000" d="M 1217.316406 845.652344 L 1217.316406 503.488281 L 921 332.417969 L 715.5625 451.023438 C 670.363281 477.113281 614.664062 477.113281 569.464844 451.023438 L 569.179688 450.851562 C 523.96875 424.753906 496.125 376.519531 496.125 324.320312 L 496.125 143.199219 L 248.097656 0.0078125 L 0.0703125 143.199219 L 0.0703125 429.597656 L 248.097656 572.796875 L 405.523438 481.910156 C 450.722656 455.8125 506.421875 455.8125 551.621094 481.910156 C 596.832031 508.011719 624.675781 556.242188 624.675781 608.441406 L 624.675781 845.652344 L 841.121094 970.621094 C 879.511719 992.78125 903.160156 1033.746094 903.160156 1078.078125 C 903.160156 1122.410156 879.511719 1163.367188 841.121094 1185.539062 L 759.921875 1232.414062 L 759.921875 1418.402344 L 921 1511.394531 L 1082.070312 1418.402344 L 1082.070312 1232.414062 L 1000.871094 1185.539062 C 962.480469 1163.375 938.832031 1122.410156 938.832031 1078.078125 L 938.832031 1078.070312 C 938.832031 1033.746094 962.480469 992.78125 1000.871094 970.609375 L 1217.316406 845.652344 " fill-opacity="1" fill-rule="nonzero"/></g></g></g></svg>