<svg xmlns="http://www.w3.org/2000/svg" viewBox="0 0 240 50">
  <defs>
    <linearGradient id="bgGradLogo" x1="0%" y1="0%" x2="100%" y2="100%">
      <stop offset="0%" style="stop-color:#0B0F1A"/>
      <stop offset="100%" style="stop-color:#151C28"/>
    </linearGradient>
  </defs>

  <!-- Icon - Data flow pattern (scaled from favicon) -->
  <g transform="translate(2, 2)">
    <rect width="46" height="46" rx="8" fill="url(#bgGradLogo)"/>

    <g fill="none" stroke="#ffb000" stroke-width="2" stroke-linecap="round" stroke-linejoin="round" transform="translate(6, 5) scale(0.52)">
      <!-- Central hexagon shape -->
      <path d="M 32 10 L 46 18 L 46 34 L 32 42 L 18 34 L 18 18 Z"/>
      <path d="M 32 18 L 32 34"/>
      <path d="M 24 14 L 24 26"/>
      <path d="M 40 14 L 40 26"/>
      <path d="M 32 42 L 32 54"/>
      <path d="M 22 38 L 14 46"/>
      <path d="M 42 38 L 50 46"/>
      <circle cx="32" cy="10" r="3" fill="#ffb000"/>
      <circle cx="32" cy="54" r="3" fill="#ffb000"/>
      <circle cx="14" cy="46" r="2.5" fill="#ffb000"/>
      <circle cx="50" cy="46" r="2.5" fill="#ffb000"/>
      <circle cx="32" cy="28" r="4" fill="#ffb000"/>
    </g>
  </g>

  <!-- Text "A.B" -->
  <text x="58" y="34" font-family="Outfit, sans-serif" font-size="24" font-weight="700" fill="currentColor">
    A<tspan fill="#ffb000">.</tspan>B
  </text>

  <!-- Tagline -->
  <text x="105" y="34" font-family="Fira Code, monospace" font-size="9" font-weight="500" fill="currentColor" opacity="0.5">
    DATA ENGINEER
  </text>
</svg>
